<svg xmlns="http://www.w3.org/2000/svg" xmlns:xlink="http://www.w3.org/1999/xlink" width="500" zoomAndPan="magnify" viewBox="0 0 375 374.999991" height="500" preserveAspectRatio="xMidYMid meet" version="1.0"><defs><filter x="0%" y="0%" width="100%" height="100%" id="f6c575a3da"><feColorMatrix values="0 0 0 0 1 0 0 0 0 1 0 0 0 0 1 0 0 0 1 0" color-interpolation-filters="sRGB"/></filter><g/><mask id="d32c8e7efb"><g filter="url(#f6c575a3da)"><rect x="-37.5" width="450" fill="#000000" y="-37.499999" height="449.999989" fill-opacity="0.1569"/></g></mask><clipPath id="1545a6e15b"><path d="M 0.601562 0.480469 L 208.351562 0.480469 L 208.351562 208.230469 L 0.601562 208.230469 Z M 0.601562 0.480469 " clip-rule="nonzero"/></clipPath><clipPath id="b50fdea61f"><rect x="0" width="209" y="0" height="209"/></clipPath><clipPath id="c14f24f99e"><path d="M 49.632812 49.632812 L 325.632812 49.632812 L 325.632812 325.632812 L 49.632812 325.632812 Z M 49.632812 49.632812 " clip-rule="nonzero"/></clipPath><clipPath id="11f237112e"><path d="M 89.0625 89.0625 L 286.3125 89.0625 L 286.3125 286.3125 L 89.0625 286.3125 Z M 89.0625 89.0625 " clip-rule="nonzero"/></clipPath><clipPath id="2071d1bd62"><path d="M 57.003906 178.078125 L 81.753906 178.078125 L 81.753906 202.828125 L 57.003906 202.828125 Z M 57.003906 178.078125 " clip-rule="nonzero"/></clipPath><clipPath id="5a055d281f"><path d="M 291.449219 177.386719 L 316.199219 177.386719 L 316.199219 202.136719 L 291.449219 202.136719 Z M 291.449219 177.386719 " clip-rule="nonzero"/></clipPath></defs><g mask="url(#d32c8e7efb)"><g transform="matrix(1, 0, 0, 1, 81, 83)"><g clip-path="url(#b50fdea61f)"><g clip-path="url(#1545a6e15b)"><path fill="#00ffa3" d="M 104.476562 0.480469 C 76.734375 0.480469 50.632812 11.300781 31.027344 30.90625 C 11.421875 50.511719 0.601562 76.613281 0.601562 104.355469 C 0.601562 113.488281 1.769531 122.492188 4.0625 131.101562 L 4.0625 132.054688 L 4.324219 132.054688 C 9.039062 149.195312 18.128906 164.90625 31.027344 177.804688 C 50.632812 197.410156 76.734375 208.230469 104.476562 208.230469 C 132.21875 208.230469 158.316406 197.410156 177.925781 177.804688 C 197.53125 158.199219 208.351562 132.097656 208.351562 104.355469 C 208.351562 76.613281 197.53125 50.511719 177.925781 30.90625 C 158.316406 11.300781 132.21875 0.480469 104.476562 0.480469 Z M 126.980469 31.644531 C 129.839844 31.644531 132.175781 33.980469 132.175781 36.835938 C 132.175781 39.691406 129.839844 42.03125 126.980469 42.03125 C 124.125 42.03125 121.789062 39.691406 121.789062 36.835938 C 121.789062 33.980469 124.125 31.644531 126.980469 31.644531 Z M 171.996094 76.65625 C 165.328125 76.65625 159.875 82.109375 159.875 88.773438 C 159.875 95.441406 165.328125 100.894531 171.996094 100.894531 C 178.097656 100.894531 183.160156 96.390625 183.984375 90.503906 L 200.429688 90.503906 C 201.078125 95.050781 201.425781 99.679688 201.425781 104.355469 C 201.425781 107.859375 201.253906 111.324219 200.863281 114.742188 L 165.371094 114.742188 L 151.523438 128.59375 L 128.582031 128.59375 C 127.761719 122.707031 122.699219 118.207031 116.59375 118.207031 C 109.929688 118.207031 104.476562 123.660156 104.476562 130.324219 C 104.476562 136.988281 109.929688 142.441406 116.59375 142.441406 C 121.398438 142.441406 125.597656 139.628906 127.542969 135.519531 L 154.378906 135.519531 L 168.230469 121.667969 L 199.867188 121.667969 C 196.621094 139.847656 188.226562 156.683594 175.414062 170.402344 L 168.792969 163.78125 C 169.742188 162.050781 170.261719 160.101562 170.261719 158.023438 C 170.261719 151.359375 164.808594 145.90625 158.144531 145.90625 C 151.480469 145.90625 146.027344 151.359375 146.027344 158.023438 C 146.027344 164.691406 151.480469 170.144531 158.144531 170.144531 C 160.222656 170.144531 162.214844 169.625 163.902344 168.671875 L 170.523438 175.292969 C 155.9375 188.925781 137.847656 197.539062 118.324219 200.308594 L 118.324219 181.957031 L 127.285156 173 C 132.132812 171.398438 135.636719 166.855469 135.636719 161.488281 C 135.636719 154.820312 130.183594 149.367188 123.519531 149.367188 C 116.855469 149.367188 111.402344 154.820312 111.402344 161.488281 C 111.402344 166.246094 114.171875 170.359375 118.152344 172.351562 L 111.402344 179.101562 L 111.402344 201.046875 C 109.105469 201.21875 106.8125 201.304688 104.476562 201.304688 C 82.445312 201.304688 61.539062 193.992188 44.488281 180.53125 L 57.429688 180.53125 L 67.816406 170.144531 L 77.945312 170.144531 C 79.890625 174.253906 84.046875 177.066406 88.894531 177.066406 C 95.558594 177.066406 101.011719 171.613281 101.011719 164.949219 C 101.011719 158.285156 95.558594 152.832031 88.894531 152.832031 C 82.792969 152.832031 77.726562 157.332031 76.90625 163.21875 L 64.960938 163.21875 L 54.574219 173.605469 L 36.652344 173.605469 C 36.4375 173.390625 36.179688 173.128906 35.960938 172.914062 C 24.363281 161.3125 16.09375 147.332031 11.550781 132.054688 L 29.644531 132.054688 L 36.566406 145.90625 L 53.75 145.90625 C 55.699219 150.015625 59.851562 152.832031 64.699219 152.832031 C 71.367188 152.832031 76.820312 147.378906 76.820312 140.710938 C 76.820312 134.046875 71.367188 128.59375 64.699219 128.59375 C 58.597656 128.59375 53.535156 133.09375 52.710938 138.980469 L 40.894531 138.980469 L 33.972656 125.128906 L 28.300781 125.128906 L 28.300781 118.074219 C 34.1875 117.253906 38.6875 112.191406 38.6875 106.085938 C 38.6875 99.421875 33.234375 93.96875 26.570312 93.96875 C 19.90625 93.96875 14.449219 99.421875 14.449219 106.085938 C 14.449219 110.890625 17.265625 115.089844 21.375 117.035156 L 21.375 125.128906 L 9.734375 125.128906 C 8.261719 118.378906 7.527344 111.410156 7.527344 104.355469 C 7.527344 98.46875 8.046875 92.710938 9.085938 87.042969 L 40.722656 87.042969 L 51.109375 97.429688 L 74.480469 97.429688 C 76.429688 101.542969 80.585938 104.355469 85.433594 104.355469 C 92.097656 104.355469 97.550781 98.902344 97.550781 92.238281 C 97.550781 85.570312 92.097656 80.117188 85.433594 80.117188 C 79.328125 80.117188 74.265625 84.621094 73.441406 90.503906 L 53.964844 90.503906 L 43.578125 80.117188 L 10.554688 80.117188 C 14.796875 63.496094 23.453125 48.261719 35.917969 35.796875 C 40.03125 31.6875 44.402344 28.007812 49.074219 24.761719 L 49.074219 53.847656 L 54.011719 58.78125 C 53.058594 60.511719 52.539062 62.460938 52.539062 64.535156 C 52.539062 71.203125 57.992188 76.65625 64.65625 76.65625 C 71.324219 76.65625 76.777344 71.203125 76.777344 64.535156 C 76.777344 57.871094 71.324219 52.417969 64.65625 52.417969 C 62.578125 52.417969 60.589844 52.9375 58.902344 53.890625 L 56 50.988281 L 56 20.347656 C 66.648438 14.199219 78.335938 10.132812 90.625 8.359375 L 90.625 57.613281 L 102.183594 66.269531 C 101.445312 67.824219 101.011719 69.601562 101.011719 71.460938 C 101.011719 78.128906 106.46875 83.582031 113.132812 83.582031 C 119.796875 83.582031 125.25 78.128906 125.25 71.460938 C 125.25 64.796875 119.796875 59.34375 113.132812 59.34375 C 110.839844 59.34375 108.675781 59.992188 106.8125 61.117188 L 97.550781 54.148438 L 97.550781 7.664062 C 99.84375 7.492188 102.140625 7.40625 104.476562 7.40625 C 110.363281 7.40625 116.117188 7.925781 121.789062 8.964844 L 121.789062 25.929688 C 117.675781 27.878906 114.863281 32.03125 114.863281 36.878906 C 114.863281 43.546875 120.316406 49 126.980469 49 C 133.648438 49 139.101562 43.546875 139.101562 36.878906 C 139.101562 30.777344 134.601562 25.714844 128.714844 24.890625 L 128.714844 10.433594 C 141.699219 13.769531 153.816406 19.785156 164.464844 28.179688 L 163.339844 28.179688 L 163.339844 60.683594 L 135.636719 74.535156 L 135.636719 91.71875 C 131.527344 93.664062 128.714844 97.820312 128.714844 102.667969 C 128.714844 109.332031 134.167969 114.785156 140.832031 114.785156 C 147.496094 114.785156 152.949219 109.332031 152.949219 102.667969 C 152.949219 96.566406 148.449219 91.5 142.5625 90.679688 L 142.5625 78.863281 L 170.261719 65.011719 L 170.261719 33.15625 C 171.214844 34.023438 172.125 34.890625 173.035156 35.796875 C 186.363281 49.128906 195.324219 65.617188 199.21875 83.582031 L 182.945312 83.582031 C 180.996094 79.46875 176.800781 76.65625 171.996094 76.65625 Z M 177.1875 88.773438 C 177.1875 91.628906 174.851562 93.96875 171.996094 93.96875 C 169.136719 93.96875 166.800781 91.628906 166.800781 88.773438 C 166.800781 85.917969 169.136719 83.582031 171.996094 83.582031 C 174.851562 83.582031 177.1875 85.917969 177.1875 88.773438 Z M 121.789062 130.324219 C 121.789062 133.179688 119.453125 135.519531 116.59375 135.519531 C 113.738281 135.519531 111.402344 133.179688 111.402344 130.324219 C 111.402344 127.46875 113.738281 125.128906 116.59375 125.128906 C 119.453125 125.128906 121.789062 127.46875 121.789062 130.324219 Z M 163.339844 158.023438 C 163.339844 160.878906 161 163.21875 158.144531 163.21875 C 155.289062 163.21875 152.949219 160.878906 152.949219 158.023438 C 152.949219 155.167969 155.289062 152.832031 158.144531 152.832031 C 161 152.832031 163.339844 155.167969 163.339844 158.023438 Z M 118.324219 161.488281 C 118.324219 158.628906 120.664062 156.292969 123.519531 156.292969 C 126.375 156.292969 128.714844 158.628906 128.714844 161.488281 C 128.714844 164.34375 126.375 166.679688 123.519531 166.679688 C 120.664062 166.679688 118.324219 164.34375 118.324219 161.488281 Z M 83.699219 164.949219 C 83.699219 162.09375 86.039062 159.753906 88.894531 159.753906 C 91.75 159.753906 94.089844 162.09375 94.089844 164.949219 C 94.089844 167.804688 91.75 170.144531 88.894531 170.144531 C 86.039062 170.144531 83.699219 167.804688 83.699219 164.949219 Z M 21.375 106.085938 C 21.375 103.230469 23.714844 100.894531 26.570312 100.894531 C 29.425781 100.894531 31.761719 103.230469 31.761719 106.085938 C 31.761719 108.941406 29.425781 111.28125 26.570312 111.28125 C 23.714844 111.28125 21.375 108.941406 21.375 106.085938 Z M 59.464844 140.710938 C 59.464844 137.855469 61.800781 135.519531 64.65625 135.519531 C 67.515625 135.519531 69.851562 137.855469 69.851562 140.710938 C 69.851562 143.566406 67.515625 145.90625 64.65625 145.90625 C 61.800781 145.90625 59.464844 143.566406 59.464844 140.710938 Z M 80.238281 92.238281 C 80.238281 89.378906 82.574219 87.042969 85.433594 87.042969 C 88.289062 87.042969 90.625 89.378906 90.625 92.238281 C 90.625 95.09375 88.289062 97.429688 85.433594 97.429688 C 82.574219 97.429688 80.238281 95.09375 80.238281 92.238281 Z M 59.464844 64.535156 C 59.464844 63.714844 59.636719 62.980469 59.984375 62.285156 L 62.40625 59.863281 C 63.097656 59.515625 63.835938 59.34375 64.65625 59.34375 C 67.515625 59.34375 69.851562 61.679688 69.851562 64.535156 C 69.851562 67.394531 67.515625 69.730469 64.65625 69.730469 C 61.800781 69.730469 59.464844 67.394531 59.464844 64.535156 Z M 107.9375 71.460938 C 107.9375 68.605469 110.277344 66.269531 113.132812 66.269531 C 115.988281 66.269531 118.324219 68.605469 118.324219 71.460938 C 118.324219 74.316406 115.988281 76.65625 113.132812 76.65625 C 110.277344 76.65625 107.9375 74.316406 107.9375 71.460938 Z M 140.832031 97.429688 C 143.6875 97.429688 146.027344 99.769531 146.027344 102.625 C 146.027344 105.480469 143.6875 107.816406 140.832031 107.816406 C 137.976562 107.816406 135.636719 105.480469 135.636719 102.625 C 135.636719 99.769531 137.976562 97.429688 140.832031 97.429688 Z M 140.832031 97.429688 " fill-opacity="1" fill-rule="nonzero"/></g></g></g></g><g clip-path="url(#c14f24f99e)"><path fill="#ff0046" d="M 187.632812 325.632812 C 111.5625 325.632812 49.632812 263.703125 49.632812 187.632812 C 49.632812 111.5625 111.5625 49.632812 187.632812 49.632812 C 263.703125 49.632812 325.632812 111.5625 325.632812 187.632812 C 325.632812 263.703125 263.703125 325.632812 187.632812 325.632812 Z M 187.632812 51.671875 C 112.648438 51.671875 51.671875 112.648438 51.671875 187.632812 C 51.671875 262.613281 112.648438 323.59375 187.632812 323.59375 C 262.613281 323.59375 323.59375 262.613281 323.59375 187.632812 C 323.59375 112.648438 262.613281 51.671875 187.632812 51.671875 Z M 187.632812 51.671875 " fill-opacity="1" fill-rule="nonzero"/></g><g clip-path="url(#11f237112e)"><path fill="#ff0046" d="M 187.6875 286.3125 C 133.324219 286.3125 89.0625 242.050781 89.0625 187.6875 C 89.0625 133.324219 133.324219 89.0625 187.6875 89.0625 C 242.050781 89.0625 286.3125 133.324219 286.3125 187.6875 C 286.3125 242.050781 242.050781 286.3125 187.6875 286.3125 Z M 187.6875 90.519531 C 134.101562 90.519531 90.519531 134.101562 90.519531 187.6875 C 90.519531 241.273438 134.101562 284.855469 187.6875 284.855469 C 241.273438 284.855469 284.855469 241.273438 284.855469 187.6875 C 284.855469 134.101562 241.273438 90.519531 187.6875 90.519531 Z M 187.6875 90.519531 " fill-opacity="1" fill-rule="nonzero"/></g><g clip-path="url(#2071d1bd62)"><path fill="#00ffa3" d="M 69.378906 178.078125 C 66.074219 178.078125 62.964844 179.367188 60.628906 181.703125 C 58.292969 184.039062 57.003906 187.148438 57.003906 190.453125 C 57.003906 191.542969 57.144531 192.613281 57.417969 193.640625 L 57.417969 193.753906 L 57.449219 193.753906 C 58.007812 195.796875 59.09375 197.667969 60.628906 199.203125 C 62.964844 201.539062 66.074219 202.828125 69.378906 202.828125 C 72.683594 202.828125 75.792969 201.539062 78.128906 199.203125 C 80.464844 196.867188 81.753906 193.757812 81.753906 190.453125 C 81.753906 187.148438 80.464844 184.039062 78.128906 181.703125 C 75.792969 179.367188 72.683594 178.078125 69.378906 178.078125 Z M 72.058594 181.792969 C 72.402344 181.792969 72.679688 182.070312 72.679688 182.410156 C 72.679688 182.75 72.402344 183.027344 72.058594 183.027344 C 71.71875 183.027344 71.441406 182.75 71.441406 182.410156 C 71.441406 182.070312 71.71875 181.792969 72.058594 181.792969 Z M 77.421875 187.152344 C 76.628906 187.152344 75.980469 187.804688 75.980469 188.597656 C 75.980469 189.390625 76.628906 190.042969 77.421875 190.042969 C 78.148438 190.042969 78.753906 189.503906 78.851562 188.804688 L 80.808594 188.804688 C 80.886719 189.34375 80.929688 189.898438 80.929688 190.453125 C 80.929688 190.871094 80.910156 191.285156 80.863281 191.691406 L 76.632812 191.691406 L 74.984375 193.339844 L 72.25 193.339844 C 72.152344 192.640625 71.550781 192.105469 70.824219 192.105469 C 70.027344 192.105469 69.378906 192.753906 69.378906 193.546875 C 69.378906 194.339844 70.027344 194.992188 70.824219 194.992188 C 71.394531 194.992188 71.894531 194.65625 72.128906 194.167969 L 75.324219 194.167969 L 76.972656 192.515625 L 80.742188 192.515625 C 80.355469 194.683594 79.355469 196.6875 77.828125 198.320312 L 77.042969 197.535156 C 77.15625 197.328125 77.214844 197.09375 77.214844 196.847656 C 77.214844 196.054688 76.566406 195.402344 75.773438 195.402344 C 74.980469 195.402344 74.328125 196.054688 74.328125 196.847656 C 74.328125 197.640625 74.980469 198.292969 75.773438 198.292969 C 76.019531 198.292969 76.257812 198.230469 76.457031 198.117188 L 77.246094 198.90625 C 75.507812 200.527344 73.355469 201.554688 71.027344 201.886719 L 71.027344 199.699219 L 72.097656 198.632812 C 72.671875 198.441406 73.089844 197.898438 73.089844 197.261719 C 73.089844 196.464844 72.441406 195.816406 71.648438 195.816406 C 70.855469 195.816406 70.203125 196.464844 70.203125 197.261719 C 70.203125 197.828125 70.535156 198.316406 71.007812 198.554688 L 70.203125 199.359375 L 70.203125 201.972656 C 69.929688 201.992188 69.65625 202.003906 69.378906 202.003906 C 66.753906 202.003906 64.265625 201.132812 62.230469 199.527344 L 63.773438 199.527344 L 65.011719 198.292969 L 66.21875 198.292969 C 66.449219 198.78125 66.945312 199.117188 67.523438 199.117188 C 68.316406 199.117188 68.964844 198.464844 68.964844 197.671875 C 68.964844 196.878906 68.316406 196.230469 67.523438 196.230469 C 66.796875 196.230469 66.191406 196.765625 66.09375 197.464844 L 64.671875 197.464844 L 63.433594 198.703125 L 61.300781 198.703125 C 61.273438 198.679688 61.242188 198.648438 61.214844 198.621094 C 59.835938 197.238281 58.851562 195.574219 58.308594 193.753906 L 60.464844 193.753906 L 61.289062 195.402344 L 63.335938 195.402344 C 63.566406 195.894531 64.0625 196.230469 64.640625 196.230469 C 65.433594 196.230469 66.085938 195.578125 66.085938 194.785156 C 66.085938 193.992188 65.433594 193.339844 64.640625 193.339844 C 63.914062 193.339844 63.308594 193.878906 63.210938 194.578125 L 61.804688 194.578125 L 60.980469 192.929688 L 60.304688 192.929688 L 60.304688 192.089844 C 61.003906 191.992188 61.542969 191.386719 61.542969 190.660156 C 61.542969 189.867188 60.890625 189.214844 60.097656 189.214844 C 59.304688 189.214844 58.652344 189.867188 58.652344 190.660156 C 58.652344 191.230469 58.988281 191.734375 59.480469 191.964844 L 59.480469 192.929688 L 58.09375 192.929688 C 57.917969 192.125 57.828125 191.292969 57.828125 190.453125 C 57.828125 189.753906 57.890625 189.066406 58.015625 188.390625 L 61.785156 188.390625 L 63.019531 189.628906 L 65.804688 189.628906 C 66.039062 190.117188 66.53125 190.453125 67.109375 190.453125 C 67.902344 190.453125 68.554688 189.804688 68.554688 189.011719 C 68.554688 188.214844 67.902344 187.566406 67.109375 187.566406 C 66.382812 187.566406 65.78125 188.101562 65.683594 188.804688 L 63.363281 188.804688 L 62.125 187.566406 L 58.191406 187.566406 C 58.695312 185.585938 59.726562 183.769531 61.210938 182.285156 C 61.703125 181.796875 62.222656 181.359375 62.777344 180.972656 L 62.777344 184.4375 L 63.367188 185.023438 C 63.253906 185.230469 63.191406 185.460938 63.191406 185.710938 C 63.191406 186.503906 63.839844 187.152344 64.636719 187.152344 C 65.429688 187.152344 66.078125 186.503906 66.078125 185.710938 C 66.078125 184.914062 65.429688 184.265625 64.636719 184.265625 C 64.386719 184.265625 64.152344 184.328125 63.949219 184.441406 L 63.605469 184.097656 L 63.605469 180.445312 C 64.871094 179.714844 66.265625 179.230469 67.730469 179.015625 L 67.730469 184.886719 L 69.105469 185.917969 C 69.019531 186.101562 68.964844 186.3125 68.964844 186.535156 C 68.964844 187.328125 69.617188 187.980469 70.410156 187.980469 C 71.203125 187.980469 71.855469 187.328125 71.855469 186.535156 C 71.855469 185.742188 71.203125 185.089844 70.410156 185.089844 C 70.136719 185.089844 69.878906 185.167969 69.65625 185.300781 L 68.554688 184.472656 L 68.554688 178.933594 C 68.828125 178.914062 69.101562 178.902344 69.378906 178.902344 C 70.082031 178.902344 70.765625 178.964844 71.441406 179.089844 L 71.441406 181.109375 C 70.953125 181.34375 70.617188 181.835938 70.617188 182.414062 C 70.617188 183.210938 71.265625 183.859375 72.058594 183.859375 C 72.855469 183.859375 73.503906 183.210938 73.503906 182.414062 C 73.503906 181.6875 72.96875 181.085938 72.265625 180.988281 L 72.265625 179.265625 C 73.8125 179.660156 75.257812 180.378906 76.527344 181.378906 L 76.390625 181.378906 L 76.390625 185.25 L 73.089844 186.902344 L 73.089844 188.949219 C 72.601562 189.179688 72.265625 189.675781 72.265625 190.253906 C 72.265625 191.046875 72.917969 191.695312 73.710938 191.695312 C 74.503906 191.695312 75.152344 191.046875 75.152344 190.253906 C 75.152344 189.527344 74.617188 188.921875 73.917969 188.824219 L 73.917969 187.417969 L 77.214844 185.765625 L 77.214844 181.972656 C 77.328125 182.074219 77.4375 182.179688 77.546875 182.285156 C 79.132812 183.875 80.203125 185.839844 80.664062 187.980469 L 78.726562 187.980469 C 78.496094 187.488281 77.996094 187.152344 77.421875 187.152344 Z M 78.042969 188.597656 C 78.042969 188.9375 77.761719 189.214844 77.421875 189.214844 C 77.082031 189.214844 76.804688 188.9375 76.804688 188.597656 C 76.804688 188.257812 77.082031 187.980469 77.421875 187.980469 C 77.761719 187.980469 78.042969 188.257812 78.042969 188.597656 Z M 71.441406 193.546875 C 71.441406 193.886719 71.164062 194.167969 70.824219 194.167969 C 70.480469 194.167969 70.203125 193.886719 70.203125 193.546875 C 70.203125 193.207031 70.480469 192.929688 70.824219 192.929688 C 71.164062 192.929688 71.441406 193.207031 71.441406 193.546875 Z M 76.390625 196.847656 C 76.390625 197.1875 76.113281 197.464844 75.773438 197.464844 C 75.433594 197.464844 75.152344 197.1875 75.152344 196.847656 C 75.152344 196.507812 75.433594 196.230469 75.773438 196.230469 C 76.113281 196.230469 76.390625 196.507812 76.390625 196.847656 Z M 71.027344 197.261719 C 71.027344 196.917969 71.308594 196.640625 71.648438 196.640625 C 71.988281 196.640625 72.265625 196.917969 72.265625 197.261719 C 72.265625 197.601562 71.988281 197.878906 71.648438 197.878906 C 71.308594 197.878906 71.027344 197.601562 71.027344 197.261719 Z M 66.902344 197.671875 C 66.902344 197.332031 67.183594 197.054688 67.523438 197.054688 C 67.863281 197.054688 68.140625 197.332031 68.140625 197.671875 C 68.140625 198.011719 67.863281 198.292969 67.523438 198.292969 C 67.183594 198.292969 66.902344 198.011719 66.902344 197.671875 Z M 59.480469 190.660156 C 59.480469 190.320312 59.757812 190.042969 60.097656 190.042969 C 60.4375 190.042969 60.714844 190.320312 60.714844 190.660156 C 60.714844 191 60.4375 191.277344 60.097656 191.277344 C 59.757812 191.277344 59.480469 191 59.480469 190.660156 Z M 64.015625 194.785156 C 64.015625 194.445312 64.292969 194.167969 64.636719 194.167969 C 64.976562 194.167969 65.253906 194.445312 65.253906 194.785156 C 65.253906 195.125 64.976562 195.402344 64.636719 195.402344 C 64.292969 195.402344 64.015625 195.125 64.015625 194.785156 Z M 66.492188 189.011719 C 66.492188 188.667969 66.769531 188.390625 67.109375 188.390625 C 67.449219 188.390625 67.730469 188.667969 67.730469 189.011719 C 67.730469 189.351562 67.449219 189.628906 67.109375 189.628906 C 66.769531 189.628906 66.492188 189.351562 66.492188 189.011719 Z M 64.015625 185.710938 C 64.015625 185.613281 64.035156 185.523438 64.078125 185.441406 L 64.367188 185.152344 C 64.449219 185.113281 64.539062 185.089844 64.636719 185.089844 C 64.976562 185.089844 65.253906 185.371094 65.253906 185.710938 C 65.253906 186.050781 64.976562 186.328125 64.636719 186.328125 C 64.292969 186.328125 64.015625 186.050781 64.015625 185.710938 Z M 69.792969 186.535156 C 69.792969 186.195312 70.070312 185.917969 70.410156 185.917969 C 70.75 185.917969 71.027344 186.195312 71.027344 186.535156 C 71.027344 186.875 70.75 187.152344 70.410156 187.152344 C 70.070312 187.152344 69.792969 186.875 69.792969 186.535156 Z M 73.710938 189.628906 C 74.050781 189.628906 74.328125 189.90625 74.328125 190.246094 C 74.328125 190.585938 74.050781 190.867188 73.710938 190.867188 C 73.371094 190.867188 73.089844 190.585938 73.089844 190.246094 C 73.089844 189.90625 73.371094 189.628906 73.710938 189.628906 Z M 73.710938 189.628906 " fill-opacity="1" fill-rule="nonzero"/></g><g clip-path="url(#5a055d281f)"><path fill="#00ffa3" d="M 303.824219 177.386719 C 300.515625 177.386719 297.40625 178.675781 295.070312 181.007812 C 292.738281 183.34375 291.449219 186.453125 291.449219 189.761719 C 291.449219 190.847656 291.585938 191.921875 291.859375 192.945312 L 291.859375 193.058594 L 291.890625 193.058594 C 292.453125 195.101562 293.535156 196.972656 295.070312 198.511719 C 297.40625 200.847656 300.515625 202.136719 303.824219 202.136719 C 307.128906 202.136719 310.238281 200.847656 312.574219 198.511719 C 314.910156 196.175781 316.199219 193.066406 316.199219 189.761719 C 316.199219 186.453125 314.910156 183.34375 312.574219 181.007812 C 310.238281 178.675781 307.128906 177.386719 303.824219 177.386719 Z M 306.503906 181.097656 C 306.84375 181.097656 307.121094 181.375 307.121094 181.714844 C 307.121094 182.054688 306.84375 182.335938 306.503906 182.335938 C 306.164062 182.335938 305.886719 182.054688 305.886719 181.714844 C 305.886719 181.375 306.164062 181.097656 306.503906 181.097656 Z M 311.867188 186.460938 C 311.070312 186.460938 310.421875 187.109375 310.421875 187.902344 C 310.421875 188.699219 311.070312 189.347656 311.867188 189.347656 C 312.59375 189.347656 313.195312 188.8125 313.292969 188.109375 L 315.253906 188.109375 C 315.332031 188.652344 315.371094 189.203125 315.371094 189.761719 C 315.371094 190.175781 315.351562 190.589844 315.304688 190.996094 L 311.078125 190.996094 L 309.425781 192.648438 L 306.695312 192.648438 C 306.597656 191.945312 305.992188 191.410156 305.265625 191.410156 C 304.472656 191.410156 303.824219 192.058594 303.824219 192.855469 C 303.824219 193.648438 304.472656 194.296875 305.265625 194.296875 C 305.839844 194.296875 306.339844 193.960938 306.570312 193.472656 L 309.765625 193.472656 L 311.417969 191.824219 L 315.1875 191.824219 C 314.800781 193.988281 313.800781 195.992188 312.273438 197.628906 L 311.484375 196.839844 C 311.597656 196.632812 311.660156 196.402344 311.660156 196.152344 C 311.660156 195.359375 311.011719 194.710938 310.214844 194.710938 C 309.421875 194.710938 308.773438 195.359375 308.773438 196.152344 C 308.773438 196.949219 309.421875 197.597656 310.214844 197.597656 C 310.464844 197.597656 310.699219 197.535156 310.902344 197.421875 L 311.691406 198.210938 C 309.953125 199.835938 307.796875 200.859375 305.472656 201.191406 L 305.472656 199.003906 L 306.539062 197.9375 C 307.117188 197.746094 307.535156 197.207031 307.535156 196.566406 C 307.535156 195.773438 306.886719 195.121094 306.089844 195.121094 C 305.296875 195.121094 304.648438 195.773438 304.648438 196.566406 C 304.648438 197.132812 304.976562 197.625 305.453125 197.859375 L 304.648438 198.664062 L 304.648438 201.277344 C 304.375 201.300781 304.101562 201.308594 303.824219 201.308594 C 301.199219 201.308594 298.707031 200.4375 296.675781 198.835938 L 298.21875 198.835938 L 299.453125 197.597656 L 300.660156 197.597656 C 300.894531 198.085938 301.386719 198.421875 301.964844 198.421875 C 302.761719 198.421875 303.410156 197.773438 303.410156 196.980469 C 303.410156 196.183594 302.761719 195.535156 301.964844 195.535156 C 301.238281 195.535156 300.636719 196.070312 300.539062 196.773438 L 299.113281 196.773438 L 297.878906 198.011719 L 295.742188 198.011719 C 295.714844 197.984375 295.6875 197.953125 295.660156 197.925781 C 294.277344 196.546875 293.292969 194.878906 292.75 193.058594 L 294.90625 193.058594 L 295.730469 194.710938 L 297.777344 194.710938 C 298.011719 195.199219 298.507812 195.535156 299.082031 195.535156 C 299.878906 195.535156 300.527344 194.886719 300.527344 194.089844 C 300.527344 193.296875 299.878906 192.648438 299.082031 192.648438 C 298.355469 192.648438 297.753906 193.183594 297.65625 193.886719 L 296.246094 193.886719 L 295.421875 192.234375 L 294.746094 192.234375 L 294.746094 191.394531 C 295.449219 191.296875 295.984375 190.691406 295.984375 189.964844 C 295.984375 189.171875 295.335938 188.523438 294.542969 188.523438 C 293.746094 188.523438 293.097656 189.171875 293.097656 189.964844 C 293.097656 190.539062 293.433594 191.039062 293.921875 191.269531 L 293.921875 192.234375 L 292.535156 192.234375 C 292.359375 191.429688 292.273438 190.601562 292.273438 189.761719 C 292.273438 189.058594 292.335938 188.371094 292.457031 187.699219 L 296.226562 187.699219 L 297.464844 188.933594 L 300.25 188.933594 C 300.480469 189.425781 300.976562 189.761719 301.554688 189.761719 C 302.347656 189.761719 302.996094 189.109375 302.996094 188.316406 C 302.996094 187.523438 302.347656 186.871094 301.554688 186.871094 C 300.828125 186.871094 300.222656 187.410156 300.125 188.109375 L 297.804688 188.109375 L 296.566406 186.871094 L 292.632812 186.871094 C 293.136719 184.890625 294.167969 183.078125 295.65625 181.59375 C 296.144531 181.101562 296.664062 180.664062 297.222656 180.277344 L 297.222656 183.742188 L 297.808594 184.332031 C 297.695312 184.535156 297.636719 184.769531 297.636719 185.015625 C 297.636719 185.808594 298.285156 186.460938 299.078125 186.460938 C 299.871094 186.460938 300.523438 185.808594 300.523438 185.015625 C 300.523438 184.222656 299.871094 183.574219 299.078125 183.574219 C 298.832031 183.574219 298.59375 183.632812 298.394531 183.746094 L 298.046875 183.402344 L 298.046875 179.75 C 299.316406 179.019531 300.707031 178.535156 302.171875 178.324219 L 302.171875 184.191406 L 303.550781 185.222656 C 303.460938 185.40625 303.410156 185.621094 303.410156 185.839844 C 303.410156 186.636719 304.058594 187.285156 304.855469 187.285156 C 305.648438 187.285156 306.296875 186.636719 306.296875 185.839844 C 306.296875 185.046875 305.648438 184.398438 304.855469 184.398438 C 304.582031 184.398438 304.324219 184.476562 304.101562 184.609375 L 302.996094 183.777344 L 302.996094 178.242188 C 303.269531 178.21875 303.542969 178.210938 303.824219 178.210938 C 304.523438 178.210938 305.210938 178.273438 305.886719 178.394531 L 305.886719 180.417969 C 305.394531 180.648438 305.058594 181.144531 305.058594 181.722656 C 305.058594 182.515625 305.710938 183.164062 306.503906 183.164062 C 307.296875 183.164062 307.949219 182.515625 307.949219 181.722656 C 307.949219 180.996094 307.410156 180.390625 306.710938 180.292969 L 306.710938 178.570312 C 308.257812 178.96875 309.699219 179.683594 310.96875 180.683594 L 310.835938 180.683594 L 310.835938 184.558594 L 307.535156 186.207031 L 307.535156 188.253906 C 307.046875 188.484375 306.710938 188.980469 306.710938 189.558594 C 306.710938 190.351562 307.359375 191.003906 308.152344 191.003906 C 308.949219 191.003906 309.597656 190.351562 309.597656 189.558594 C 309.597656 188.832031 309.0625 188.226562 308.359375 188.128906 L 308.359375 186.722656 L 311.660156 185.074219 L 311.660156 181.277344 C 311.773438 181.382812 311.882812 181.484375 311.988281 181.59375 C 313.578125 183.179688 314.644531 185.144531 315.109375 187.285156 L 313.171875 187.285156 C 312.9375 186.796875 312.4375 186.460938 311.867188 186.460938 Z M 312.484375 187.902344 C 312.484375 188.242188 312.207031 188.523438 311.867188 188.523438 C 311.527344 188.523438 311.246094 188.242188 311.246094 187.902344 C 311.246094 187.5625 311.527344 187.285156 311.867188 187.285156 C 312.207031 187.285156 312.484375 187.5625 312.484375 187.902344 Z M 305.886719 192.855469 C 305.886719 193.195312 305.605469 193.472656 305.265625 193.472656 C 304.925781 193.472656 304.648438 193.195312 304.648438 192.855469 C 304.648438 192.511719 304.925781 192.234375 305.265625 192.234375 C 305.605469 192.234375 305.886719 192.511719 305.886719 192.855469 Z M 310.835938 196.152344 C 310.835938 196.492188 310.554688 196.773438 310.214844 196.773438 C 309.875 196.773438 309.597656 196.492188 309.597656 196.152344 C 309.597656 195.8125 309.875 195.535156 310.214844 195.535156 C 310.554688 195.535156 310.835938 195.8125 310.835938 196.152344 Z M 305.472656 196.566406 C 305.472656 196.226562 305.75 195.949219 306.089844 195.949219 C 306.429688 195.949219 306.710938 196.226562 306.710938 196.566406 C 306.710938 196.90625 306.429688 197.183594 306.089844 197.183594 C 305.75 197.183594 305.472656 196.90625 305.472656 196.566406 Z M 301.347656 196.980469 C 301.347656 196.636719 301.625 196.359375 301.964844 196.359375 C 302.304688 196.359375 302.585938 196.636719 302.585938 196.980469 C 302.585938 197.320312 302.304688 197.597656 301.964844 197.597656 C 301.625 197.597656 301.347656 197.320312 301.347656 196.980469 Z M 293.921875 189.964844 C 293.921875 189.625 294.199219 189.347656 294.542969 189.347656 C 294.882812 189.347656 295.160156 189.625 295.160156 189.964844 C 295.160156 190.304688 294.882812 190.585938 294.542969 190.585938 C 294.199219 190.585938 293.921875 190.304688 293.921875 189.964844 Z M 298.460938 194.089844 C 298.460938 193.75 298.738281 193.472656 299.078125 193.472656 C 299.417969 193.472656 299.699219 193.75 299.699219 194.089844 C 299.699219 194.429688 299.417969 194.710938 299.078125 194.710938 C 298.738281 194.710938 298.460938 194.429688 298.460938 194.089844 Z M 300.933594 188.316406 C 300.933594 187.976562 301.214844 187.699219 301.554688 187.699219 C 301.894531 187.699219 302.171875 187.976562 302.171875 188.316406 C 302.171875 188.65625 301.894531 188.933594 301.554688 188.933594 C 301.214844 188.933594 300.933594 188.65625 300.933594 188.316406 Z M 298.460938 185.015625 C 298.460938 184.917969 298.480469 184.832031 298.523438 184.746094 L 298.808594 184.460938 C 298.894531 184.417969 298.980469 184.398438 299.078125 184.398438 C 299.417969 184.398438 299.699219 184.675781 299.699219 185.015625 C 299.699219 185.355469 299.417969 185.636719 299.078125 185.636719 C 298.738281 185.636719 298.460938 185.355469 298.460938 185.015625 Z M 304.234375 185.839844 C 304.234375 185.5 304.511719 185.222656 304.855469 185.222656 C 305.195312 185.222656 305.472656 185.5 305.472656 185.839844 C 305.472656 186.179688 305.195312 186.460938 304.855469 186.460938 C 304.511719 186.460938 304.234375 186.179688 304.234375 185.839844 Z M 308.152344 188.933594 C 308.492188 188.933594 308.773438 189.214844 308.773438 189.554688 C 308.773438 189.894531 308.492188 190.171875 308.152344 190.171875 C 307.8125 190.171875 307.535156 189.894531 307.535156 189.554688 C 307.535156 189.214844 307.8125 188.933594 308.152344 188.933594 Z M 308.152344 188.933594 " fill-opacity="1" fill-rule="nonzero"/></g><g fill="#00ffa3" fill-opacity="1"><g transform="translate(167.975326, 257.32992)"><g><path d="M 54.875 -50.6875 L 74.691406 -0.0546875 L 102.992188 -72.234375 C 105.558594 -78.878906 108.351562 -80.050781 108.351562 -80.050781 L 102.433594 -80.050781 C 102.433594 -80.050781 104.277344 -78.878906 101.707031 -72.234375 L 77.480469 -10.328125 L 53.253906 -72.234375 C 50.632812 -78.878906 52.527344 -80.050781 52.527344 -80.050781 L 41.085938 -80.050781 C 41.085938 -80.050781 43.820312 -78.878906 46.445312 -72.234375 L 54.257812 -52.304688 L 37.792969 -10.328125 L 13.566406 -72.234375 C 10.996094 -78.878906 12.839844 -80.050781 12.839844 -80.050781 L 1.394531 -80.050781 C 1.394531 -80.050781 4.1875 -78.878906 6.808594 -72.234375 L 35.054688 -0.0546875 Z M 54.875 -50.6875 "/></g></g></g><g fill="#ffffff" fill-opacity="1"><g transform="translate(80.666831, 146.265934)"><g><path d="M -6.03125 -20.390625 L 7.1875 -13.203125 L 6.5625 -12.046875 L -8.796875 -9.390625 L 1.9375 -3.546875 L 1.171875 -2.15625 L -12.046875 -9.34375 L -11.421875 -10.5 L 3.9375 -13.171875 L -6.78125 -19 Z M -6.03125 -20.390625 "/></g></g></g><g fill="#ffffff" fill-opacity="1"><g transform="translate(91.408649, 127.480845)"><g><path d="M 4.28125 -11.796875 L -0.953125 -5.25 L 1.0625 -1.328125 L 0.03125 -0.03125 L -7.421875 -14.8125 L -6.4375 -16.046875 L 9.609375 -12 L 8.5625 -10.703125 Z M 2.921875 -12.140625 L -5.640625 -14.375 L -1.59375 -6.5 Z M 2.921875 -12.140625 "/></g></g></g><g fill="#ffffff" fill-opacity="1"><g transform="translate(104.076289, 112.375913)"><g><path d="M -5.25 -13.71875 L -9.15625 -10.15625 L -10.09375 -11.171875 L -1.109375 -19.375 L -0.171875 -18.359375 L -4.078125 -14.796875 L 5.140625 -4.703125 L 3.96875 -3.625 Z M -5.25 -13.71875 "/></g></g></g><g fill="#ffffff" fill-opacity="1"><g transform="translate(116.515274, 101.299301)"><g><path d="M 7.6875 -9.90625 L 0.703125 -5.28125 L 1.421875 -0.9375 L 0.046875 -0.03125 L -2.546875 -16.375 L -1.21875 -17.234375 L 12.8125 -8.484375 L 11.421875 -7.5625 Z M 6.5 -10.671875 L -0.96875 -15.421875 L 0.46875 -6.671875 Z M 6.5 -10.671875 "/></g></g></g><g fill="#ffffff" fill-opacity="1"><g transform="translate(132.998007, 90.720042)"><g><path d="M 7.8125 -19.78125 L 13.796875 -5.96875 L 12.59375 -5.453125 L -1.140625 -12.828125 L 3.71875 -1.609375 L 2.25 -0.96875 L -3.734375 -14.78125 L -2.53125 -15.3125 L 11.21875 -7.953125 L 6.359375 -19.15625 Z M 7.8125 -19.78125 "/></g></g></g><g fill="#ffffff" fill-opacity="1"><g transform="translate(153.139242, 82.605427)"><g><path d="M 1.90625 -14.5625 L -3.21875 -13.28125 L -3.546875 -14.609375 L 8.25 -17.5625 L 8.578125 -16.234375 L 3.453125 -14.953125 L 6.765625 -1.6875 L 5.21875 -1.296875 Z M 1.90625 -14.5625 "/></g></g></g><g fill="#ffffff" fill-opacity="1"><g transform="translate(169.65907, 78.954759)"><g/></g></g><g fill="#ffffff" fill-opacity="1"><g transform="translate(179.660878, 77.560907)"><g><path d="M 15.15625 -14.921875 L 15.03125 0.125 L 13.71875 0.109375 L 4.15625 -12.1875 L 4.046875 0.03125 L 2.453125 0.015625 L 2.578125 -15.03125 L 3.890625 -15.015625 L 13.484375 -2.734375 L 13.578125 -14.9375 Z M 15.15625 -14.921875 "/></g></g></g><g fill="#ffffff" fill-opacity="1"><g transform="translate(201.312562, 78.235522)"><g><path d="M 13.125 0.984375 L 12.875 2.34375 L 2.40625 0.4375 L 5.109375 -14.359375 L 15.265625 -12.5 L 15.015625 -11.15625 L 6.4375 -12.734375 L 5.484375 -7.46875 L 13.140625 -6.0625 L 12.890625 -4.734375 L 5.234375 -6.140625 L 4.234375 -0.640625 Z M 13.125 0.984375 "/></g></g></g><g fill="#ffffff" fill-opacity="1"><g transform="translate(219.64569, 81.992016)"><g><path d="M 9.53125 -11.171875 L 4.546875 -12.890625 L 5 -14.1875 L 16.484375 -10.234375 L 16.03125 -8.9375 L 11.046875 -10.65625 L 6.59375 2.265625 L 5.078125 1.75 Z M 9.53125 -11.171875 "/></g></g></g><g fill="#ffffff" fill-opacity="1"><g transform="translate(235.263643, 87.207984)"><g><path d="M 27.53125 -1.53125 L 15.640625 8.984375 L 14.1875 8.15625 L 16.75 -5.171875 L 6.53125 3.75 L 5.09375 2.921875 L 8.1875 -12.65625 L 9.59375 -11.84375 L 6.90625 1.546875 L 17.265625 -7.4375 L 18.5625 -6.6875 L 15.90625 6.78125 L 26.21875 -2.28125 Z M 27.53125 -1.53125 "/></g></g></g><g fill="#ffffff" fill-opacity="1"><g transform="translate(258.981756, 101.675794)"><g><path d="M 6.625 6.140625 C 5.519531 5.140625 4.738281 3.984375 4.28125 2.671875 C 3.820312 1.367188 3.726562 0.0625 4 -1.25 C 4.28125 -2.570312 4.90625 -3.769531 5.875 -4.84375 C 6.84375 -5.914062 7.96875 -6.65625 9.25 -7.0625 C 10.53125 -7.46875 11.84375 -7.507812 13.1875 -7.1875 C 14.539062 -6.875 15.769531 -6.21875 16.875 -5.21875 C 17.976562 -4.21875 18.753906 -3.070312 19.203125 -1.78125 C 19.648438 -0.488281 19.738281 0.816406 19.46875 2.140625 C 19.195312 3.472656 18.578125 4.675781 17.609375 5.75 C 16.640625 6.820312 15.503906 7.5625 14.203125 7.96875 C 12.910156 8.375 11.597656 8.421875 10.265625 8.109375 C 8.941406 7.796875 7.726562 7.140625 6.625 6.140625 Z M 7.578125 5.078125 C 8.460938 5.878906 9.441406 6.40625 10.515625 6.65625 C 11.585938 6.90625 12.640625 6.851562 13.671875 6.5 C 14.710938 6.15625 15.628906 5.546875 16.421875 4.671875 C 17.203125 3.804688 17.710938 2.835938 17.953125 1.765625 C 18.191406 0.703125 18.132812 -0.347656 17.78125 -1.390625 C 17.425781 -2.441406 16.804688 -3.367188 15.921875 -4.171875 C 15.035156 -4.960938 14.050781 -5.484375 12.96875 -5.734375 C 11.894531 -5.984375 10.832031 -5.9375 9.78125 -5.59375 C 8.738281 -5.257812 7.828125 -4.660156 7.046875 -3.796875 C 6.253906 -2.921875 5.742188 -1.941406 5.515625 -0.859375 C 5.285156 0.210938 5.347656 1.269531 5.703125 2.3125 C 6.066406 3.363281 6.691406 4.285156 7.578125 5.078125 Z M 7.578125 5.078125 "/></g></g></g><g fill="#ffffff" fill-opacity="1"><g transform="translate(275.116427, 116.888689)"><g><path d="M 7.78125 10.078125 L 9.5 4.390625 C 9.21875 4.117188 8.953125 3.816406 8.703125 3.484375 L 6.234375 0.296875 L 2.46875 3.203125 L 1.5 1.9375 L 13.40625 -7.265625 L 16.84375 -2.8125 C 18.019531 -1.28125 18.578125 0.191406 18.515625 1.609375 C 18.460938 3.035156 17.800781 4.238281 16.53125 5.21875 C 15.601562 5.9375 14.632812 6.304688 13.625 6.328125 C 12.625 6.359375 11.640625 6.046875 10.671875 5.390625 L 8.84375 11.453125 Z M 9.765625 2.625 C 10.671875 3.800781 11.625 4.5 12.625 4.71875 C 13.632812 4.9375 14.609375 4.679688 15.546875 3.953125 C 16.515625 3.210938 17.015625 2.332031 17.046875 1.3125 C 17.085938 0.289062 16.65625 -0.804688 15.75 -1.984375 L 13.296875 -5.15625 L 7.3125 -0.546875 Z M 9.765625 2.625 "/></g></g></g><g fill="#ffffff" fill-opacity="1"><g transform="translate(286.904962, 132.752621)"><g><path d="M 9.59375 2.953125 L 5.390625 1.71875 L 1.90625 3.578125 L 1.15625 2.171875 L 14.4375 -4.90625 L 15.1875 -3.5 L 7.15625 0.78125 L 19.34375 4.28125 L 20.203125 5.890625 L 11.109375 3.34375 L 7.125 13.375 L 6.234375 11.703125 Z M 9.59375 2.953125 "/></g></g></g><g fill="#00ffa3" fill-opacity="1"><g transform="translate(104.711313, 208.067346)"><g><path d="M 66.945312 -10.925781 L 12.375 -94.332031 L 1.644531 -94.332031 C 1.644531 -94.332031 4.804688 -92.355469 4.804688 -85.640625 L 4.804688 -9.214844 C 4.804688 -1.382812 2.105469 -0.0664062 2.105469 -0.0664062 L 9.085938 -0.0664062 C 9.085938 -0.0664062 6.320312 -1.382812 6.320312 -9.214844 L 6.320312 -85.707031 C 6.320312 -87.289062 6.449219 -88.605469 6.648438 -89.65625 C 7.371094 -88.605469 66.945312 -0.0664062 66.945312 -0.0664062 L 68.394531 -0.0664062 L 68.460938 -85.707031 C 68.460938 -93.539062 71.226562 -94.332031 71.226562 -94.332031 L 64.246094 -94.332031 C 64.246094 -94.332031 66.945312 -93.476562 66.945312 -85.640625 Z M 66.945312 -10.925781 "/></g></g></g><g fill="#ffffff" fill-opacity="1"><g transform="translate(108.634571, 278.480457)"><g><path d="M 12.265625 -1.53125 L 6.890625 5.375 L 6.28125 4.90625 L 6.203125 -4.15625 L 1.84375 1.4375 L 1.125 0.875 L 6.5 -6.03125 L 7.09375 -5.5625 L 7.1875 3.5 L 11.546875 -2.09375 Z M 12.265625 -1.53125 "/></g></g></g><g fill="#ffffff" fill-opacity="1"><g transform="translate(119.666208, 286.790317)"><g><path d="M 7.109375 1.625 L 2.96875 -0.9375 L 0.84375 0.515625 L 0.03125 0.015625 L 8.015625 -5.3125 L 8.796875 -4.84375 L 7.609375 4.703125 L 6.78125 4.1875 Z M 7.21875 0.828125 L 7.890625 -4.28125 L 3.640625 -1.375 Z M 7.21875 0.828125 "/></g></g></g><g fill="#ffffff" fill-opacity="1"><g transform="translate(130.455872, 293.206631)"><g><path d="M 6.3125 -5.765625 L 3.5625 -7.125 L 3.90625 -7.828125 L 10.25 -4.703125 L 9.90625 -4 L 7.140625 -5.359375 L 3.625 1.78125 L 2.796875 1.375 Z M 6.3125 -5.765625 "/></g></g></g><g fill="#ffffff" fill-opacity="1"><g transform="translate(140.17512, 297.844834)"><g><path d="M 7.28125 0.25 L 2.734375 -1.46875 L 0.921875 0.34375 L 0.03125 0.015625 L 6.859375 -6.765625 L 7.71875 -6.4375 L 8.359375 3.15625 L 7.453125 2.8125 Z M 7.25 -0.5625 L 6.9375 -5.703125 L 3.3125 -2.046875 Z M 7.25 -0.5625 "/></g></g></g><g fill="#ffffff" fill-opacity="1"><g transform="translate(152.033327, 302.149094)"><g><path d="M 10.640625 -6.28125 L 8.453125 2.1875 L 7.71875 1.984375 L 4.03125 -6.296875 L 2.265625 0.578125 L 1.375 0.359375 L 3.5625 -8.109375 L 4.3125 -7.921875 L 7.984375 0.34375 L 9.765625 -6.515625 Z M 10.640625 -6.28125 "/></g></g></g><g fill="#ffffff" fill-opacity="1"><g transform="translate(165.433596, 305.338667)"><g><path d="M 4.296875 -7.390625 L 1.25 -7.859375 L 1.359375 -8.65625 L 8.359375 -7.578125 L 8.25 -6.78125 L 5.203125 -7.25 L 4 0.609375 L 3.09375 0.46875 Z M 4.296875 -7.390625 "/></g></g></g><g fill="#ffffff" fill-opacity="1"><g transform="translate(175.994589, 306.750215)"><g/></g></g><g fill="#ffffff" fill-opacity="1"><g transform="translate(182.795798, 307.287273)"><g><path d="M 8.6875 -8.796875 L 8.734375 -0.046875 L 7.96875 -0.046875 L 2.3125 -7.109375 L 2.34375 -0.015625 L 1.421875 0 L 1.375 -8.75 L 2.140625 -8.765625 L 7.8125 -1.703125 L 7.78125 -8.796875 Z M 8.6875 -8.796875 "/></g></g></g><g fill="#ffffff" fill-opacity="1"><g transform="translate(196.591391, 306.975247)"><g><path d="M 7.46875 -1.640625 L 7.5625 -0.84375 L 1.40625 -0.15625 L 0.4375 -8.859375 L 6.40625 -9.53125 L 6.484375 -8.734375 L 1.4375 -8.171875 L 1.796875 -5.078125 L 6.296875 -5.578125 L 6.375 -4.78125 L 1.875 -4.28125 L 2.234375 -1.0625 Z M 7.46875 -1.640625 "/></g></g></g><g fill="#ffffff" fill-opacity="1"><g transform="translate(208.43588, 305.452416)"><g><path d="M 1.4375 -8.421875 L -1.578125 -7.796875 L -1.734375 -8.578125 L 5.1875 -10.015625 L 5.34375 -9.234375 L 2.34375 -8.609375 L 3.96875 -0.828125 L 3.0625 -0.640625 Z M 1.4375 -8.421875 "/></g></g></g><g fill="#ffffff" fill-opacity="1"><g transform="translate(219.080182, 303.219283)"><g><path d="M 9.984375 -12.546875 L 9.9375 -3.3125 L 9.03125 -3.015625 L 4.234375 -9.28125 L 4.15625 -1.390625 L 3.234375 -1.078125 L -2.328125 -8.4375 L -1.4375 -8.734375 L 3.34375 -2.40625 L 3.4375 -10.375 L 4.265625 -10.640625 L 9.09375 -4.28125 L 9.140625 -12.265625 Z M 9.984375 -12.546875 "/></g></g></g><g fill="#ffffff" fill-opacity="1"><g transform="translate(235.691978, 297.296367)"><g><path d="M 4.75 -2.234375 C 3.96875 -1.859375 3.175781 -1.691406 2.375 -1.734375 C 1.570312 -1.773438 0.847656 -2.007812 0.203125 -2.4375 C -0.441406 -2.863281 -0.953125 -3.457031 -1.328125 -4.21875 C -1.691406 -4.976562 -1.84375 -5.742188 -1.78125 -6.515625 C -1.726562 -7.296875 -1.472656 -8.015625 -1.015625 -8.671875 C -0.554688 -9.335938 0.0625 -9.859375 0.84375 -10.234375 C 1.625 -10.617188 2.410156 -10.785156 3.203125 -10.734375 C 4.003906 -10.691406 4.734375 -10.457031 5.390625 -10.03125 C 6.046875 -9.601562 6.554688 -9.007812 6.921875 -8.25 C 7.296875 -7.488281 7.453125 -6.710938 7.390625 -5.921875 C 7.328125 -5.140625 7.066406 -4.425781 6.609375 -3.78125 C 6.148438 -3.132812 5.53125 -2.617188 4.75 -2.234375 Z M 4.390625 -2.96875 C 5.003906 -3.269531 5.492188 -3.679688 5.859375 -4.203125 C 6.234375 -4.734375 6.4375 -5.316406 6.46875 -5.953125 C 6.507812 -6.585938 6.378906 -7.21875 6.078125 -7.84375 C 5.773438 -8.457031 5.363281 -8.941406 4.84375 -9.296875 C 4.320312 -9.648438 3.738281 -9.84375 3.09375 -9.875 C 2.457031 -9.914062 1.832031 -9.785156 1.21875 -9.484375 C 0.601562 -9.179688 0.113281 -8.765625 -0.25 -8.234375 C -0.625 -7.710938 -0.835938 -7.132812 -0.890625 -6.5 C -0.941406 -5.863281 -0.816406 -5.238281 -0.515625 -4.625 C -0.210938 -4 0.203125 -3.507812 0.734375 -3.15625 C 1.273438 -2.800781 1.863281 -2.601562 2.5 -2.5625 C 3.144531 -2.53125 3.773438 -2.664062 4.390625 -2.96875 Z M 4.390625 -2.96875 "/></g></g></g><g fill="#ffffff" fill-opacity="1"><g transform="translate(248.297809, 290.881205)"><g><path d="M 6.265625 -3.953125 L 3.0625 -5.265625 C 2.882812 -5.117188 2.691406 -4.984375 2.484375 -4.859375 L 0.5 -3.59375 L 1.984375 -1.25 L 1.203125 -0.765625 L -3.46875 -8.15625 L -0.703125 -9.90625 C 0.242188 -10.5 1.125 -10.738281 1.9375 -10.625 C 2.757812 -10.519531 3.421875 -10.070312 3.921875 -9.28125 C 4.296875 -8.695312 4.457031 -8.113281 4.40625 -7.53125 C 4.363281 -6.957031 4.128906 -6.410156 3.703125 -5.890625 L 7.109375 -4.5 Z M 2.046875 -5.515625 C 2.773438 -5.972656 3.226562 -6.484375 3.40625 -7.046875 C 3.59375 -7.617188 3.5 -8.195312 3.125 -8.78125 C 2.75 -9.375 2.265625 -9.707031 1.671875 -9.78125 C 1.085938 -9.863281 0.429688 -9.675781 -0.296875 -9.21875 L -2.265625 -7.96875 L 0.078125 -4.265625 Z M 2.046875 -5.515625 "/></g></g></g><g fill="#ffffff" fill-opacity="1"><g transform="translate(258.895766, 283.947201)"><g><path d="M 0.703125 -5.78125 L 0.421875 -3.25 L 1.84375 -1.453125 L 1.109375 -0.875 L -4.3125 -7.75 L -3.578125 -8.328125 L -0.296875 -4.171875 L 0.453125 -11.515625 L 1.28125 -12.171875 L 0.765625 -6.703125 L 6.921875 -5.453125 L 6.0625 -4.78125 Z M 0.703125 -5.78125 "/></g></g></g></svg>
